<svg width="256" height="256" viewBox="0 0 256 256" fill="none" xmlns="http://www.w3.org/2000/svg">
  <rect x="0" y="0" width="256" height="256" rx="64" fill="#FFFFFF"/>
  <rect x="48" y="48" width="160" height="160" rx="48" fill="#2563EB" opacity="0.12"/>
  <path d="M128 68C95.9086 68 70 93.9086 70 126C70 158.091 95.9086 184 128 184C160.091 184 186 158.091 186 126C186 93.9086 160.091 68 128 68Z" fill="#2563EB"/>
  <path d="M128 96C132.418 96 136 99.5817 136 104V118H150C154.418 118 158 121.582 158 126C158 130.418 154.418 134 150 134H136V148C136 152.418 132.418 156 128 156C123.582 156 120 152.418 120 148V134H106C101.582 134 98 130.418 98 126C98 121.582 101.582 118 106 118H120V104C120 99.5817 123.582 96 128 96Z" fill="#FFFFFF"/>
</svg>

